<svg xmlns="http://www.w3.org/2000/svg" xmlns:xlink="http://www.w3.org/1999/xlink" width="48" height="48" viewBox="0 0 48 48">
  <defs>
    <clipPath id="clip-cart_mobile">
      <rect width="48" height="48"/>
    </clipPath>
  </defs>
  <g id="cart_mobile" clip-path="url(#clip-cart_mobile)">
    <path id="Icon_material-shopping-cart" data-name="Icon material-shopping-cart" d="M15.576,40.537a4.692,4.692,0,1,0,4.692,4.692A4.686,4.686,0,0,0,15.576,40.537ZM1.5,3V7.692H6.192L14.638,25.5l-3.167,5.748a4.536,4.536,0,0,0-.587,2.252,4.706,4.706,0,0,0,4.692,4.692H43.729V33.5H16.562a.581.581,0,0,1-.587-.587l.07-.282,2.111-3.824H35.635a4.67,4.67,0,0,0,4.106-2.416l8.4-15.226a2.292,2.292,0,0,0,.282-1.126,2.353,2.353,0,0,0-2.346-2.346h-34.7L9.172,3ZM39.037,40.537a4.692,4.692,0,1,0,4.692,4.692A4.686,4.686,0,0,0,39.037,40.537Z" transform="translate(-0.422 -2.15)" fill="#f9f9f9"/>
  </g>
</svg>
