<svg xmlns="http://www.w3.org/2000/svg" xmlns:xlink="http://www.w3.org/1999/xlink" width="48" height="48" viewBox="0 0 48 48">
  <defs>
    <clipPath id="clip-cart">
      <rect width="48" height="48"/>
    </clipPath>
  </defs>
  <g id="cart" clip-path="url(#clip-cart)">
    <path id="Icon_material-shopping-cart" data-name="Icon material-shopping-cart" d="M15.9,41.4a4.8,4.8,0,1,0,4.8,4.8A4.794,4.794,0,0,0,15.9,41.4ZM1.5,3V7.8H6.3l8.64,18.216L11.7,31.9a4.64,4.64,0,0,0-.6,2.3A4.814,4.814,0,0,0,15.9,39H44.7V34.2H16.908a.594.594,0,0,1-.6-.6l.072-.288L18.54,29.4H36.42a4.777,4.777,0,0,0,4.2-2.472l8.592-15.576A2.345,2.345,0,0,0,49.5,10.2a2.407,2.407,0,0,0-2.4-2.4H11.6L9.348,3ZM39.9,41.4a4.8,4.8,0,1,0,4.8,4.8A4.794,4.794,0,0,0,39.9,41.4Z" transform="translate(-1.5 -3)" fill="#06b37b"/>
  </g>
</svg>
