<svg xmlns="http://www.w3.org/2000/svg" xmlns:xlink="http://www.w3.org/1999/xlink" width="48" height="48" viewBox="0 0 48 48">
  <defs>
    <clipPath id="clip-filter_black">
      <rect width="48" height="48"/>
    </clipPath>
  </defs>
  <g id="filter_black" clip-path="url(#clip-filter_black)">
    <g id="filter" transform="translate(-3.933 -2.905)">
      <path id="Path_1231" data-name="Path 1231" d="M110.389,84.356h-28.6a5.9,5.9,0,0,0-11.184,0H66.145a1.878,1.878,0,1,0,0,3.755h4.464a5.9,5.9,0,0,0,11.184,0h28.6a1.878,1.878,0,1,0,0-3.755ZM76.2,88.378a2.145,2.145,0,1,1,2.145-2.145A2.147,2.147,0,0,1,76.2,88.378Z" transform="translate(-60.334 -75.418)" fill="#444"/>
      <path id="Path_1232" data-name="Path 1232" d="M110.389,212.889h-4.464a5.9,5.9,0,0,0-11.183,0h-28.6a1.878,1.878,0,1,0,0,3.755h28.6a5.9,5.9,0,0,0,11.183,0h4.464a1.878,1.878,0,1,0,0-3.755Zm-10.056,4.022a2.145,2.145,0,1,1,2.145-2.145A2.147,2.147,0,0,1,100.334,216.911Z" transform="translate(-60.334 -187.862)" fill="#444"/>
      <path id="Path_1233" data-name="Path 1233" d="M110.389,341.422H89.836a5.9,5.9,0,0,0-11.184,0H66.145a1.878,1.878,0,1,0,0,3.755H78.653a5.9,5.9,0,0,0,11.184,0h20.553a1.878,1.878,0,1,0,0-3.755Zm-26.145,4.022a2.145,2.145,0,1,1,2.145-2.145A2.147,2.147,0,0,1,84.245,345.444Z" transform="translate(-60.334 -300.306)" fill="#444"/>
    </g>
  </g>
</svg>
