<svg xmlns="http://www.w3.org/2000/svg" xmlns:xlink="http://www.w3.org/1999/xlink" width="670" height="569" viewBox="0 0 670 569">
  <defs>
    <clipPath id="clip-verification_illustration">
      <rect width="670" height="569"/>
    </clipPath>
  </defs>
  <g id="verification_illustration" clip-path="url(#clip-verification_illustration)">
    <g id="Group_706" data-name="Group 706">
      <path id="Path_2554" data-name="Path 2554" d="M519.058,243.295c6.31,13.07,17.92,22.8,30.08,30.72a190.2,190.2,0,0,0,41.3,20.18c2,.7,4.02,1.37,6.04,2h86.48c.56-.64,1.1-1.31,1.62-2,5.43-7.18,8.34-16.27,7.25-25.18-1.43-11.68-10.3-22.42-21.81-24.91s-24.63,4.39-28.12,15.63c-1.93-21.67-4.15-44.25-15.67-62.71-10.43-16.71-28.51-28.67-48.09-30.81a60.56,60.56,0,0,0-33.481,6.13c-.95.48-1.89.98-2.81,1.5a56.016,56.016,0,0,0-16.14,13.77C513.5,203.075,510.507,225.545,519.058,243.295Z" transform="translate(-272.256 -165.889)" fill="#f2f2f2"/>
      <path id="Path_2555" data-name="Path 2555" d="M568.575,173.845a1.522,1.522,0,0,0,.62,1.37,316.964,316.964,0,0,1,90.35,118.98c.3.66.59,1.33.87,2h3.98c-.28-.67-.56-1.34-.85-2q-5.685-13.26-12.57-25.98a321.828,321.828,0,0,0-34.9-51.66,317.068,317.068,0,0,0-44.27-43.95,1.925,1.925,0,0,0-.42-.26,2.037,2.037,0,0,0-2.81,1.5Z" transform="translate(-298.983 -165.889)" fill="#fff"/>
      <path id="Path_2556" data-name="Path 2556" d="M285.039,294.2h381a18.89,18.89,0,0,1,9.36,2.47,18.522,18.522,0,0,1,1.97,1.29,18.964,18.964,0,0,1,7.67,15.24v198a19.017,19.017,0,0,1-19,19h-381a19.017,19.017,0,0,1-19-19v-198A19.017,19.017,0,0,1,285.039,294.2Zm-17,217a17.025,17.025,0,0,0,17,17h381a17.024,17.024,0,0,0,17-17v-198a17.1,17.1,0,0,0-11.78-16.18c-.14-.04-.27-.09-.41-.13a17,17,0,0,0-4.81-.69h-381a17.024,17.024,0,0,0-17,17Z" transform="translate(-17.098 -165.889)" fill="#3f3d56"/>
      <path id="Path_2558" data-name="Path 2558" d="M458.247,556.443h12.26l5.832-47.288H458.245Z" transform="translate(-266.643 -0.014)" fill="#ffb8b8"/>
      <path id="Path_2559" data-name="Path 2559" d="M464.077,552.939H440.433v14.887h38.531a14.887,14.887,0,0,0-14.887-14.887Z" transform="translate(-251.456 -0.014)" fill="#2f2e41"/>
      <path id="Path_2560" data-name="Path 2560" d="M545.247,556.443h12.26l5.832-47.288H545.245Z" transform="translate(-440.643 -0.014)" fill="#ffb8b8"/>
      <path id="Path_2561" data-name="Path 2561" d="M551.077,552.939H527.433v14.887h38.531a14.887,14.887,0,0,0-14.887-14.887Z" transform="translate(-425.456 -0.014)" fill="#2f2e41"/>
      <ellipse id="Ellipse_499" data-name="Ellipse 499" cx="24.561" cy="24.561" rx="24.561" ry="24.561" transform="translate(120.693 201.128)" fill="#ffb8b8"/>
      <path id="Path_2563" data-name="Path 2563" d="M813.208,503.864l.508-35.074c1.871-22.433-8.064-34.211-16.728-40.136a19.919,19.919,0,0,0-15.4-2.948l-19.33,4.179a20.372,20.372,0,0,0-13.055,9.3,19.02,19.02,0,0,0-2.172,15.008,20.6,20.6,0,0,0,8.4,11.5c16.609,11.725,17.779,31.419,17.789,31.617l.02.407Z" transform="translate(-626.324 -165.889)" fill="#06b37b"/>
      <path id="Path_2557" data-name="Path 2557" d="M794.435,552.467a10.743,10.743,0,0,1-1.964-16.355L786.5,464.9l17.105,1.881,4.687,69.308a10.8,10.8,0,0,1-13.856,16.376Z" transform="translate(-663.712 -165.889)" fill="#ffb8b8"/>
      <path id="Path_2564" data-name="Path 2564" d="M790.588,477.783h17a4.505,4.505,0,0,0,4.5-4.5v-29.5a13,13,0,0,0-26,0v29.5a4.505,4.505,0,0,0,4.5,4.5Z" transform="translate(-664.196 -165.889)" fill="#059845"/>
      <path id="Path_2565" data-name="Path 2565" d="M747.12,483.356a11.036,11.036,0,0,0,16.5.477c9.686-10.159-6.148-25.413-15.871-15.232h0a10.663,10.663,0,0,0-.952,1.12L697.765,468.5l-5.852-10.7-17.985,6.983c3.453,5.355,7.417,26.37,16.448,25.347C691.56,490.161,745.909,483.442,747.12,483.356Z" transform="translate(-506.589 -165.889)" fill="#ffb8b8"/>
      <path id="Path_2566" data-name="Path 2566" d="M769.76,475.257,783.465,465.2a4.505,4.505,0,0,0,.965-6.29l-17.454-23.783a13,13,0,0,0-20.961,15.383l17.454,23.783A4.505,4.505,0,0,0,769.76,475.257Z" transform="translate(-594.817 -165.889)" fill="#059845"/>
      <path id="Path_2567" data-name="Path 2567" d="M899.219,404.344a9.111,9.111,0,0,1,1.56-10.159c4.621-4.659,11.84-1.551,18.084-2.007,10.4-.76,17.485-13.163,14.38-23.12s-14.142-16.134-24.551-15.479S888.861,360.673,882.588,369c-4.294-6.911-14.843-7.717-21.652-3.262s-10.331,12.6-11.787,20.6-1.218,16.231-2.444,24.275c-2.972,19.5-15.555,37.857-33.763,45.436s-41.508,2.708-53.42-13.011a86.77,86.77,0,0,0,54.2,91.154c9.867,3.905,20.763,5.979,31.15,3.808,16.77-3.5,29.814-17.846,35.5-34.008s5-33.895,2.243-50.8c-1.7-10.414-3.584-22.748,4.012-30.073a18.243,18.243,0,0,1,7.336-3.7A9.8,9.8,0,0,0,899.551,405Q899.366,404.673,899.219,404.344Z" transform="translate(-758.884 -165.889)" fill="#2f2e41"/>
      <path id="Path_2569" data-name="Path 2569" d="M478.275,412.111a8.987,8.987,0,0,0,4.339-1.119L681.657,301.439a1,1,0,0,0-.964-1.752L481.65,409.24a6.982,6.982,0,0,1-6.641.059l-202.32-106.73a1,1,0,1,0-.933,1.769l202.32,106.729A8.993,8.993,0,0,0,478.275,412.111Z" transform="translate(-19.418 -165.889)" fill="#3f3d56"/>
      <path id="Path_2570" data-name="Path 2570" d="M301.605,480.2h28a8,8,0,0,0,0-16h-28a8,8,0,0,0,0,16Z" transform="translate(302.77 -165.889)" fill="#3f3d56"/>
      <path id="Path_2571" data-name="Path 2571" d="M301.605,507.2h61a8,8,0,0,0,0-16h-61a8,8,0,0,0,0,16Z" transform="translate(269.77 -165.889)" fill="#3f3d56"/>
      <ellipse id="Ellipse_500" data-name="Ellipse 500" cx="32" cy="32" rx="32" ry="32" transform="translate(426.937 214.306)" fill="#70f3c9"/>
      <path id="Path_2572" data-name="Path 2572" d="M145.254,325.306S85.675,493.273,91.137,515.728s3.034,16.993,3.034,16.993,22.455-5.462,33.986,0S158.5,462.928,158.5,462.928s23.062,41.875,22.455,58.261,0,11.531,0,11.531,17.6-9.71,27.31-4.248,14.565,4.248,14.565,4.248S204.018,345.8,190.667,337.3,145.254,325.306,145.254,325.306Z" fill="#444"/>
    </g>
  </g>
</svg>
